# xmcd
#
# Track frame offsets:
#	150
#	19145
#	33725
#	44452
#	74777
#	94300
#	108030
#	124827
#
# Disc length: 2851 seconds
#
# Revision: 0
# Processed by: cddbd v1.4PL0 Copyright (c) Steve Scherf et al.
# Submitted via: audiograbber 1.81.02
#
DISCID=710b2108
DTITLE=Johann Wolfgang von Goethe - Die Leiden des jungen Werther CD1
DYEAR=1994
DGENRE=Vocal
TTITLE0=Ankunft und Einleben in der Landschaft
TTITLE1=Frühling
TTITLE2=Homer
TTITLE3=Volk
TTITLE4=Zeichnen
TTITLE5=Ländliche Idylle
TTITLE6=Der liebende Bauernbursche
TTITLE7=Der Ball auf dem Lande
EXTD=
EXTT0=
EXTT1=
EXTT2=
EXTT3=
EXTT4=
EXTT5=
EXTT6=
EXTT7=
PLAYORDER=
